<?xml version="1.0" encoding="utf-8"?>
<!-- Created by UniConvertor 2.0rc5 (https://sk1project.net/) -->
<svg xmlns="http://www.w3.org/2000/svg" height="64.0px" width="64.0px" version="1.1" xmlns:xlink="http://www.w3.org/1999/xlink" id="c2fcf786-6883-11ed-ac38-0242ac150007">

<g>
	<path style="fill:#000000;" d="M 32.0,6.0 C 17.641,6.0 6.0,17.641 6.0,32.0 6.0,44.277 14.512,54.56 25.955,57.286 25.363,57.145 24.776,56.987 24.2,56.807 L 24.2,50.85 C 24.2,50.85 23.225,51.175 21.925,51.175 18.288,51.175 16.777,47.93 16.4,46.3 16.171,45.307 15.573,44.366 14.931,43.791 14.164,43.107 13.805,43.105 13.8,42.871 13.79,42.38 14.458,42.4 14.775,42.4 16.4,42.4 17.632,44.129 18.204,45.023 19.621,47.23 21.142,47.6 21.925,47.6 22.9,47.6 23.742,47.454 24.322,47.174 24.59,45.286 25.43,43.604 26.8,42.4 20.703,41.181 16.4,37.684 16.4,32.0 16.4,29.072 17.575,26.381 19.533,24.208 19.333,23.641 19.0,22.494 19.0,20.625 19.0,19.39 19.086,17.874 19.65,16.4 19.65,16.4 23.358,16.426 26.855,19.738 28.469,19.268 30.196,19.0 32.0,19.0 33.804,19.0 35.531,19.268 37.145,19.738 40.642,16.426 44.35,16.4 44.35,16.4 44.917,17.874 45.0,19.39 45.0,20.625 45.0,22.64 44.732,23.815 44.568,24.322 46.466,26.475 47.6,29.124 47.6,32.0 47.6,37.684 43.297,41.181 37.2,42.4 38.828,43.83 39.8,45.913 39.8,48.25 L 39.8,56.807 C 39.224,56.988 38.638,57.145 38.045,57.286 49.488,54.56 58.0,44.277 58.0,32.0 58.0,17.641 46.359,6.0 32.0,6.0 Z M 33.813,57.93 C 33.214,57.972 32.61,58.0 32.0,58.0 32.61,58.0 33.213,57.971 33.813,57.93 Z M 37.786,57.346 C 36.622,57.611 35.429,57.797 34.211,57.9 35.429,57.797 36.622,57.61 37.786,57.346 Z M 32.0,58.0 C 31.39,58.0 30.786,57.972 30.187,57.93 30.787,57.971 31.39,58.0 32.0,58.0 Z M 29.788,57.9 C 28.571,57.797 27.377,57.611 26.214,57.346 27.378,57.61 28.571,57.797 29.788,57.9 Z" />
</g>
</svg>